<svg width="1022" height="783" viewBox="0 0 1022 783" fill="none" xmlns="http://www.w3.org/2000/svg">
<path opacity="0.3" d="M431 341.954C491.751 341.954 541 292.705 541 231.954C541 171.203 491.751 121.954 431 121.954C370.249 121.954 321 171.203 321 231.954C321 292.705 370.249 341.954 431 341.954Z" fill="#6C63FF"/>
<path opacity="0.3" d="M218 602.954C253.899 602.954 283 573.853 283 537.954C283 502.056 253.899 472.954 218 472.954C182.101 472.954 153 502.056 153 537.954C153 573.853 182.101 602.954 218 602.954Z" fill="#6C63FF"/>
<path opacity="0.3" d="M635 670.954C708.454 670.954 768 611.408 768 537.954C768 464.5 708.454 404.954 635 404.954C561.546 404.954 502 464.5 502 537.954C502 611.408 561.546 670.954 635 670.954Z" fill="#6C63FF"/>
<path d="M194.13 323.037L192.174 322.62C192.593 320.655 193.029 318.696 193.484 316.745L195.432 317.198C194.98 319.138 194.546 321.084 194.13 323.037Z" fill="#6C63FF"/>
<path d="M823.887 306.513C822.861 302.703 821.748 298.855 820.58 295.076L822.49 294.485C823.666 298.287 824.786 302.159 825.818 305.994L823.887 306.513ZM198.35 305.639L196.42 305.114C197.467 301.268 198.602 297.385 199.793 293.573L201.702 294.17C200.518 297.959 199.39 301.817 198.35 305.639V305.639ZM816.858 283.789C815.549 280.054 814.157 276.304 812.72 272.642L814.581 271.912C816.027 275.596 817.429 279.37 818.745 283.127L816.858 283.789ZM205.478 282.836L203.592 282.169C204.924 278.407 206.343 274.621 207.811 270.917L209.67 271.653C208.211 275.335 206.801 279.098 205.478 282.836V282.836ZM808.17 261.653C806.596 258.039 804.93 254.399 803.219 250.837L805.021 249.971C806.743 253.556 808.42 257.217 810.004 260.855L808.17 261.653ZM214.274 260.636L212.443 259.831C214.048 256.181 215.743 252.513 217.481 248.927L219.281 249.799C217.554 253.363 215.869 257.009 214.274 260.636V260.636ZM797.868 240.207C796.024 236.707 794.094 233.198 792.13 229.78L793.864 228.784C795.84 232.223 797.783 235.753 799.638 239.275L797.868 240.207ZM224.686 239.158L222.919 238.22C224.791 234.698 226.752 231.166 228.748 227.722L230.478 228.725C228.495 232.147 226.545 235.658 224.686 239.158ZM786.011 219.568C783.92 216.218 781.735 212.86 779.52 209.586L781.177 208.465C783.406 211.759 785.603 215.139 787.708 218.509L786.011 219.568ZM236.649 218.514L234.957 217.449C237.079 214.08 239.293 210.703 241.539 207.412L243.191 208.539C240.959 211.811 238.758 215.167 236.649 218.514H236.649ZM772.664 199.847C770.343 196.671 767.918 193.48 765.457 190.364L767.027 189.125C769.503 192.261 771.942 195.471 774.279 198.667L772.664 199.847ZM250.095 198.813L248.485 197.626C250.852 194.417 253.308 191.213 255.784 188.102L257.349 189.347C254.888 192.439 252.447 195.624 250.095 198.813H250.095ZM757.904 181.149C755.344 178.138 752.691 175.132 750.021 172.215L751.495 170.864C754.183 173.799 756.852 176.823 759.428 179.853L757.904 181.149ZM264.944 180.155L263.425 178.853C266.014 175.834 268.697 172.819 271.399 169.892L272.869 171.248C270.183 174.158 267.517 177.154 264.944 180.155V180.155ZM741.812 163.574C739.032 160.752 736.166 157.947 733.293 155.237L734.666 153.782C737.556 156.509 740.439 159.331 743.236 162.17L741.812 163.574ZM281.113 162.639L279.694 161.23C282.502 158.401 285.397 155.591 288.298 152.877L289.665 154.338C286.781 157.035 283.904 159.828 281.113 162.639V162.639ZM724.472 147.217C721.496 144.608 718.432 142.019 715.364 139.522L716.626 137.972C719.713 140.483 722.796 143.088 725.79 145.713L724.472 147.217ZM298.513 146.355L297.201 144.846C300.206 142.233 303.297 139.643 306.39 137.147L307.646 138.704C304.573 141.184 301.5 143.759 298.513 146.355V146.355ZM705.978 132.166C702.825 129.786 699.578 127.428 696.328 125.158L697.473 123.518C700.744 125.803 704.011 128.175 707.183 130.569L705.978 132.166ZM317.051 131.392L315.853 129.791C319.042 127.404 322.314 125.047 325.578 122.787L326.716 124.431C323.473 126.677 320.221 129.02 317.051 131.392ZM686.426 118.507C683.1 116.361 679.687 114.247 676.283 112.225L677.305 110.505C680.729 112.541 684.163 114.667 687.51 116.827L686.426 118.507ZM336.628 117.831L335.55 116.146C338.901 114.002 342.335 111.893 345.758 109.876L346.773 111.6C343.372 113.604 339.958 115.7 336.628 117.831V117.831ZM665.913 106.319C662.445 104.426 658.885 102.569 655.332 100.798L656.225 99.0084C659.799 100.79 663.382 102.659 666.871 104.563L665.913 106.319ZM357.139 105.747L356.188 103.987C359.684 102.097 363.263 100.247 366.824 98.4873L367.71 100.28C364.17 102.029 360.613 103.868 357.139 105.747ZM644.551 95.6709C640.95 94.0391 637.262 92.4502 633.587 90.9473L634.344 89.0957C638.042 90.6079 641.754 92.2075 645.377 93.8496L644.551 95.6709ZM378.474 95.2095L377.655 93.3853C381.274 91.7613 384.978 90.1802 388.663 88.687L389.414 90.5406C385.751 92.0249 382.07 93.5957 378.474 95.2095V95.2095ZM622.451 86.6319C618.725 85.2671 614.926 83.9551 611.16 82.732L611.778 80.8296C615.567 82.0606 619.389 83.3809 623.139 84.7539L622.451 86.6319ZM400.516 86.2793L399.834 84.3994C403.568 83.0444 407.376 81.7427 411.152 80.5293L411.764 82.4336C408.012 83.6392 404.228 84.9331 400.516 86.2793V86.2793ZM599.729 79.2534C595.92 78.1714 592.043 77.1475 588.206 76.209L588.68 74.2666C592.542 75.2105 596.443 76.2412 600.275 77.3296L599.729 79.2534ZM423.177 78.9981L422.636 77.0723C426.463 75.9976 430.367 74.9785 434.239 74.0435L434.709 75.9878C430.86 76.917 426.98 77.9297 423.177 78.9981ZM576.578 73.5938C572.705 72.7979 568.763 72.0635 564.861 71.4107L565.191 69.438C569.117 70.0948 573.083 70.834 576.98 71.6348L576.578 73.5938ZM446.343 73.4058L445.947 71.4458C449.851 70.6552 453.819 69.9277 457.742 69.2832L458.066 71.2568C454.168 71.897 450.224 72.6202 446.343 73.4058V73.4058ZM553.072 69.6602C549.143 69.1509 545.157 68.709 541.227 68.3452L541.411 66.354C545.366 66.7198 549.375 67.1646 553.329 67.6768L553.072 69.6602ZM469.86 69.5415L469.609 67.5572C473.55 67.0576 477.561 66.624 481.53 66.2681L481.709 68.2603C477.764 68.6138 473.777 69.045 469.86 69.5415V69.5415ZM529.341 67.4644C525.399 67.2442 521.393 67.0938 517.431 67.0171L517.47 65.0171C521.455 65.0948 525.487 65.2461 529.452 65.4673L529.341 67.4644ZM493.598 67.4131L493.492 65.416C497.463 65.2056 501.496 65.0659 505.478 65L505.511 67C501.553 67.065 497.545 67.2041 493.598 67.4131Z" fill="#6C63FF"/>
<path d="M828.104 324.145C827.694 322.191 827.267 320.244 826.823 318.303L828.772 317.856C829.221 319.809 829.65 321.768 830.062 323.735L828.104 324.145Z" fill="#6C63FF"/>
<path d="M830.802 454.546L828.839 454.158C829.225 452.205 829.593 450.246 829.944 448.28L831.913 448.63C831.561 450.609 831.19 452.581 830.802 454.546Z" fill="#6C63FF"/>
<path d="M511 716.954C508.827 716.954 506.658 716.933 504.495 716.891L504.534 714.891C508.487 714.968 512.468 714.973 516.426 714.909L516.458 716.909C514.643 716.938 512.823 716.953 511 716.954ZM528.416 716.498L528.311 714.5C532.266 714.292 536.256 714.009 540.17 713.659L540.348 715.651C536.41 716.003 532.395 716.288 528.416 716.498ZM492.541 716.44C488.571 716.219 484.558 715.922 480.612 715.558L480.795 713.565C484.718 713.928 488.707 714.224 492.652 714.444L492.541 716.44ZM552.242 714.371L551.991 712.387C555.928 711.889 559.887 711.314 563.758 710.68L564.081 712.654C560.186 713.292 556.203 713.869 552.242 714.371V714.371ZM468.721 714.238C464.77 713.726 460.788 713.136 456.887 712.483L457.217 710.511C461.094 711.158 465.051 711.745 468.978 712.254L468.721 714.238ZM575.85 710.505L575.454 708.544C579.335 707.761 583.241 706.896 587.063 705.977L587.531 707.922C583.685 708.847 579.755 709.716 575.85 710.505V710.505ZM445.126 710.295C441.225 709.494 437.297 708.612 433.453 707.674L433.928 705.73C437.748 706.663 441.651 707.54 445.528 708.336L445.126 710.295ZM599.109 704.908L598.57 702.982C602.364 701.92 606.195 700.77 609.958 699.564L610.568 701.469C606.782 702.683 602.927 703.84 599.109 704.908V704.908ZM421.884 704.624C418.061 703.54 414.2 702.367 410.406 701.138L411.022 699.235C414.793 700.457 418.631 701.623 422.43 702.7L421.884 704.624ZM621.862 697.62L621.182 695.739C624.877 694.402 628.605 692.976 632.26 691.5L633.009 693.354C629.331 694.84 625.581 696.275 621.862 697.62L621.862 697.62ZM399.069 697.23C395.331 695.864 391.568 694.409 387.886 692.905L388.642 691.054C392.301 692.548 396.041 693.994 399.755 695.351L399.069 697.23ZM643.993 688.682L643.177 686.855C646.776 685.245 650.391 683.548 653.92 681.809L654.803 683.604C651.252 685.352 647.615 687.061 643.993 688.682L643.993 688.682ZM376.874 688.172C373.25 686.533 369.608 684.806 366.048 683.036L366.938 681.245C370.476 683.004 374.097 684.722 377.699 686.35L376.874 688.172ZM665.422 678.131L664.473 676.371C667.949 674.498 671.431 672.539 674.82 670.548L675.834 672.272C672.422 674.275 668.919 676.247 665.422 678.131H665.422ZM355.42 677.504C351.926 675.603 348.422 673.612 345.005 671.587L346.025 669.866C349.421 671.88 352.903 673.858 356.376 675.747L355.42 677.504ZM686.027 666.032L684.952 664.347C688.264 662.235 691.593 660.025 694.849 657.777L695.985 659.424C692.709 661.685 689.358 663.908 686.027 666.032H686.027ZM334.817 665.292C331.477 663.142 328.13 660.901 324.869 658.629L326.012 656.988C329.254 659.246 332.58 661.474 335.899 663.61L334.817 665.292ZM705.697 652.453L704.502 650.85C707.657 648.497 710.818 646.049 713.896 643.573L715.15 645.132C712.053 647.623 708.872 650.086 705.697 652.453L705.697 652.453ZM315.173 651.607C312.005 649.225 308.832 646.745 305.742 644.237L307.001 642.685C310.073 645.177 313.227 647.641 316.375 650.01L315.173 651.607ZM724.33 637.468L723.021 635.956C726.002 633.374 728.976 630.701 731.863 628.011L733.226 629.474C730.323 632.181 727.33 634.87 724.33 637.468L724.33 637.468ZM296.587 636.526C293.593 633.91 290.61 631.206 287.722 628.49L289.092 627.033C291.962 629.732 294.927 632.42 297.903 635.02L296.587 636.526ZM741.829 621.159L740.413 619.747C743.208 616.944 745.98 614.061 748.654 611.177L750.121 612.536C747.431 615.438 744.641 618.34 741.829 621.159ZM279.157 620.137C276.37 617.318 273.593 614.405 270.903 611.478L272.375 610.125C275.049 613.034 277.809 615.929 280.579 618.73L279.157 620.137ZM758.095 603.613L756.579 602.309C759.159 599.312 761.716 596.233 764.177 593.155L765.739 594.405C763.263 597.501 760.69 600.6 758.095 603.613V603.613ZM262.972 602.525C260.397 599.509 257.841 596.402 255.375 593.291L256.942 592.049C259.394 595.141 261.934 598.228 264.494 601.227L262.972 602.525ZM773.045 584.921L771.438 583.729C773.798 580.545 776.123 577.286 778.348 574.044L779.996 575.175C777.759 578.437 775.42 581.716 773.045 584.921V584.921ZM248.121 583.786C245.771 580.589 243.449 577.305 241.219 574.026L242.874 572.901C245.089 576.16 247.396 579.424 249.732 582.603L248.121 583.786ZM786.589 565.178L784.899 564.107C787.01 560.778 789.09 557.356 791.083 553.938L792.812 554.946C790.806 558.386 788.712 561.828 786.589 565.178V565.178ZM234.682 564.021C232.574 560.664 230.5 557.221 228.516 553.787L230.248 552.787C232.219 556.199 234.281 559.621 236.376 562.959L234.682 564.021ZM798.654 544.489L796.891 543.546C798.761 540.049 800.584 536.482 802.312 532.945L804.108 533.822C802.371 537.382 800.536 540.971 798.654 544.489ZM222.731 543.334C220.875 539.83 219.06 536.245 217.335 532.68L219.136 531.809C220.85 535.353 222.654 538.915 224.499 542.398L222.731 543.334ZM809.167 522.961L807.339 522.15C808.938 518.542 810.495 514.848 811.965 511.172L813.822 511.914C812.343 515.613 810.777 519.33 809.167 522.961V522.961ZM212.336 521.834C210.742 518.202 209.196 514.495 207.741 510.817L209.601 510.081C211.047 513.737 212.584 517.421 214.167 521.03L212.336 521.834ZM818.065 500.701L816.183 500.027C817.516 496.298 818.795 492.497 819.986 488.731L821.893 489.335C820.695 493.123 819.407 496.947 818.065 500.701V500.701ZM203.558 499.641C202.234 495.897 200.963 492.078 199.779 488.288L201.688 487.692C202.865 491.458 204.128 495.254 205.443 498.975L203.558 499.641ZM825.295 477.832L823.367 477.299C824.414 473.508 825.406 469.633 826.316 465.781L828.264 466.242C827.347 470.117 826.349 474.017 825.295 477.832ZM196.423 476.806C195.382 472.98 194.398 469.083 193.498 465.22L195.446 464.767C196.34 468.605 197.318 472.479 198.353 476.28L196.423 476.806Z" fill="#6C63FF"/>
<path d="M190.957 453.307C190.576 451.34 190.212 449.367 189.867 447.387L191.837 447.043C192.18 449.01 192.541 450.971 192.92 452.926L190.957 453.307Z" fill="#6C63FF"/>
<path d="M674.265 455.46L672.405 454.725C673.131 452.89 673.836 451.012 674.502 449.141L676.387 449.812C675.713 451.704 674.999 453.604 674.265 455.46Z" fill="#6C63FF"/>
<path d="M511 566.454C508.604 566.454 506.187 566.405 503.814 566.31L503.896 564.312C507.832 564.471 511.855 564.498 515.803 564.389L515.858 566.389C514.244 566.433 512.624 566.454 511 566.454ZM527.878 565.652L527.688 563.662C531.627 563.287 535.599 562.77 539.496 562.126L539.822 564.099C535.88 564.751 531.862 565.273 527.878 565.652ZM491.804 565.416C487.826 564.983 483.815 564.407 479.883 563.703L480.236 561.734C484.123 562.43 488.088 563 492.021 563.428L491.804 565.416ZM551.63 561.727L551.168 559.781C555.019 558.867 558.882 557.81 562.651 556.636L563.246 558.546C559.433 559.732 555.525 560.803 551.63 561.727V561.727ZM468.107 561.174C464.223 560.198 460.328 559.075 456.53 557.837L457.15 555.935C460.905 557.159 464.755 558.27 468.594 559.234L468.107 561.174ZM574.615 554.568L573.89 552.705C577.57 551.273 581.251 549.691 584.83 548.007L585.683 549.815C582.062 551.521 578.338 553.12 574.615 554.568V554.568ZM445.212 553.706C441.501 552.205 437.799 550.556 434.207 548.804L435.084 547.007C438.634 548.738 442.294 550.368 445.962 551.853L445.212 553.706ZM596.396 544.312L595.421 542.566C598.876 540.637 602.306 538.565 605.614 536.409L606.706 538.085C603.36 540.266 599.891 542.361 596.396 544.312ZM423.565 543.157C420.099 541.161 416.658 539.02 413.338 536.792L414.452 535.132C417.734 537.334 421.136 539.451 424.563 541.425L423.565 543.157ZM616.567 531.166L615.362 529.57C618.523 527.185 621.638 524.664 624.62 522.078L625.931 523.59C622.915 526.205 619.764 528.754 616.567 531.166ZM403.57 529.741C400.404 527.287 397.287 524.695 394.308 522.039L395.639 520.547C398.584 523.172 401.665 525.733 404.796 528.161L403.57 529.741ZM634.755 515.393L633.345 513.975C636.149 511.185 638.892 508.264 641.497 505.293L643.001 506.611C640.366 509.616 637.592 512.57 634.755 515.393V515.393ZM385.592 513.727C382.795 510.87 380.061 507.88 377.464 504.838L378.985 503.539C381.552 506.547 384.256 509.504 387.021 512.328L385.592 513.727ZM650.629 497.289L649.039 496.076C651.436 492.935 653.755 489.668 655.934 486.365L657.604 487.467C655.399 490.808 653.054 494.112 650.629 497.289ZM369.961 495.415C367.576 492.201 365.274 488.865 363.12 485.501L364.804 484.423C366.934 487.748 369.209 491.046 371.567 494.224L369.961 495.415ZM663.886 477.19L662.146 476.206C664.09 472.766 665.94 469.212 667.646 465.644L669.45 466.506C667.726 470.115 665.854 473.71 663.886 477.19H663.886ZM356.975 475.144C355.052 471.632 353.229 468.013 351.556 464.388L353.373 463.55C355.025 467.134 356.828 470.711 358.729 474.183L356.975 475.144Z" fill="#6C63FF"/>
<path d="M346.865 453.216C346.157 451.351 345.47 449.441 344.821 447.538L346.715 446.893C347.355 448.774 348.035 450.663 348.735 452.506L346.865 453.216Z" fill="#6C63FF"/>
<path d="M349.955 326.279L348.1 325.533C348.849 323.669 349.638 321.799 350.446 319.974L352.275 320.784C351.477 322.588 350.696 324.437 349.955 326.279Z" fill="#6C63FF"/>
<path d="M357.531 309.949L355.763 309.015C357.652 305.442 359.693 301.888 361.828 298.453L363.526 299.509C361.416 302.905 359.399 306.417 357.531 309.949ZM662.891 307.036C660.958 303.543 658.874 300.07 656.698 296.712L658.376 295.625C660.577 299.021 662.686 302.534 664.641 306.067L662.891 307.036ZM370.231 289.509L368.61 288.338C370.977 285.06 373.488 281.823 376.075 278.717L377.612 279.997C375.055 283.068 372.571 286.268 370.231 289.509ZM649.803 286.842C647.404 283.649 644.86 280.497 642.244 277.472L643.756 276.164C646.403 279.223 648.976 282.411 651.402 285.641L649.803 286.842ZM385.631 271.017L384.186 269.634C386.981 266.713 389.914 263.853 392.904 261.131L394.25 262.61C391.294 265.301 388.395 268.129 385.631 271.017ZM634.057 268.646C631.239 265.811 628.286 263.038 625.279 260.404L626.598 258.9C629.638 261.564 632.625 264.369 635.476 267.236L634.057 268.646ZM403.428 254.818L402.187 253.25C405.36 250.739 408.659 248.31 411.992 246.028L413.122 247.678C409.826 249.934 406.565 252.336 403.428 254.818ZM615.956 252.788C612.776 250.369 609.469 248.029 606.127 245.834L607.225 244.162C610.606 246.383 613.951 248.749 617.167 251.196L615.956 252.788ZM423.285 241.228L422.272 239.503C425.758 237.457 429.361 235.506 432.981 233.707L433.872 235.498C430.293 237.276 426.731 239.205 423.285 241.228ZM595.841 239.578C592.352 237.618 588.753 235.758 585.146 234.05L586.001 232.243C589.651 233.97 593.291 235.852 596.821 237.834L595.841 239.578ZM444.832 230.518L444.068 228.669C447.804 227.126 451.644 225.696 455.479 224.418L456.11 226.315C452.32 227.579 448.525 228.992 444.832 230.518V230.518ZM574.092 229.282C570.366 227.827 566.544 226.486 562.732 225.297L563.328 223.388C567.184 224.591 571.05 225.947 574.819 227.419L574.092 229.282ZM467.656 222.912L467.158 220.975C471.071 219.969 475.073 219.087 479.051 218.356L479.412 220.323C475.48 221.046 471.525 221.917 467.656 222.912V222.912ZM551.123 222.116C547.234 221.196 543.263 220.401 539.319 219.753L539.643 217.78C543.633 218.435 547.65 219.239 551.583 220.17L551.123 222.116ZM491.321 218.558L491.096 216.571C495.101 216.119 499.185 215.8 503.236 215.623L503.323 217.621C499.317 217.796 495.279 218.111 491.321 218.558V218.558ZM527.379 218.217C523.409 217.845 519.366 217.606 515.362 217.508L515.411 215.509C519.461 215.608 523.55 215.85 527.566 216.226L527.379 218.217Z" fill="#6C63FF"/>
<path d="M670.805 323.277C670.03 321.45 669.215 319.616 668.382 317.826L670.194 316.982C671.037 318.793 671.862 320.648 672.646 322.496L670.805 323.277Z" fill="#6C63FF"/>
<path d="M696.621 390.718C693.994 390.707 691.445 391.609 689.409 393.269C687.373 394.928 685.975 397.243 685.455 399.818C684.935 402.393 685.325 405.068 686.558 407.388C687.79 409.708 689.79 411.528 692.215 412.538C694.64 413.548 697.34 413.685 699.855 412.926C702.37 412.167 704.543 410.559 706.005 408.376C707.466 406.194 708.125 403.571 707.869 400.957C707.613 398.343 706.457 395.898 704.6 394.041C703.557 392.985 702.314 392.148 700.945 391.577C699.575 391.007 698.105 390.714 696.621 390.718V390.718Z" fill="#3F3D56"/>
<path d="M651.379 390.718C648.752 390.707 646.203 391.609 644.167 393.268C642.131 394.928 640.733 397.243 640.213 399.818C639.693 402.393 640.083 405.068 641.316 407.388C642.548 409.708 644.548 411.528 646.973 412.538C649.398 413.548 652.098 413.685 654.613 412.926C657.128 412.167 659.301 410.559 660.763 408.376C662.224 406.194 662.883 403.571 662.627 400.957C662.371 398.343 661.215 395.898 659.358 394.041C658.313 392.988 657.07 392.152 655.701 391.582C654.331 391.011 652.862 390.718 651.379 390.718Z" fill="#3F3D56"/>
<path d="M674 327.954C662.727 327.954 651.706 331.297 642.333 337.56C632.959 343.824 625.653 352.726 621.339 363.141C617.025 373.557 615.896 385.017 618.095 396.074C620.295 407.131 625.723 417.288 633.695 425.259C641.667 433.231 651.823 438.66 662.88 440.859C673.937 443.058 685.398 441.929 695.813 437.615C706.228 433.301 715.131 425.995 721.394 416.622C727.657 407.248 731 396.228 731 384.954C731 369.837 724.995 355.339 714.305 344.649C703.616 333.959 689.117 327.954 674 327.954V327.954ZM685.077 351.723C685.802 351.716 686.52 351.854 687.191 352.128C687.862 352.402 688.472 352.808 688.984 353.32C689.497 353.832 689.902 354.442 690.176 355.113C690.45 355.784 690.588 356.503 690.581 357.227C690.588 358.326 690.268 359.401 689.662 360.317C689.056 361.233 688.191 361.949 687.178 362.372C686.164 362.796 685.048 362.908 683.97 362.696C682.893 362.483 681.903 361.955 681.126 361.178C680.349 360.401 679.821 359.411 679.609 358.334C679.396 357.256 679.509 356.14 679.932 355.126C680.356 354.113 681.071 353.248 681.987 352.642C682.903 352.036 683.979 351.716 685.077 351.723V351.723ZM651.379 418.185C648.183 418.187 645.058 417.24 642.399 415.466C639.741 413.691 637.669 411.168 636.445 408.215C635.221 405.262 634.9 402.013 635.524 398.878C636.147 395.743 637.686 392.864 639.946 390.604C642.206 388.344 645.085 386.805 648.22 386.181C651.355 385.558 654.605 385.879 657.557 387.103C660.51 388.327 663.033 390.399 664.808 393.057C666.582 395.716 667.529 398.841 667.527 402.037C667.513 406.315 665.807 410.414 662.781 413.439C659.756 416.465 655.657 418.171 651.379 418.185H651.379ZM676.769 385.993V401.569C676.769 402.304 676.478 403.008 675.958 403.528C675.439 404.047 674.735 404.339 674 404.339C673.266 404.339 672.561 404.047 672.042 403.528C671.523 403.008 671.231 402.304 671.231 401.569V390.164C671.231 387.896 668.462 387.395 660.587 382.86C659.565 382.254 657.385 381.181 657.385 378.17C657.402 376.718 657.979 375.329 658.994 374.293L671.404 362.333C671.993 361.737 672.712 361.286 673.504 361.015C674.297 360.744 675.142 360.66 675.972 360.771C676.802 360.882 677.596 361.183 678.29 361.653C678.984 362.122 679.559 362.746 679.971 363.475L685.077 373.877H693.385C694.118 373.879 694.821 374.171 695.34 374.69C695.858 375.209 696.149 375.913 696.149 376.646C696.149 377.38 695.858 378.084 695.34 378.603C694.821 379.122 694.118 379.414 693.385 379.416H683.45C681.598 379.416 680.11 375.435 676.873 370.502L668.41 379.416C671.508 381.839 676.769 383.708 676.769 385.993H676.769ZM696.621 418.168C693.427 418.168 690.305 417.221 687.65 415.446C684.994 413.672 682.925 411.15 681.702 408.199C680.48 405.248 680.16 402.002 680.783 398.869C681.407 395.737 682.945 392.859 685.203 390.601C687.461 388.343 690.339 386.805 693.471 386.182C696.603 385.559 699.85 385.878 702.801 387.101C705.752 388.323 708.274 390.393 710.048 393.048C711.822 395.704 712.769 398.826 712.769 402.02C712.756 406.298 711.05 410.398 708.025 413.423C704.999 416.449 700.9 418.154 696.621 418.168H696.621Z" fill="#3F3D56"/>
<path d="M836 327.954C824.727 327.954 813.706 331.297 804.333 337.56C794.959 343.824 787.653 352.726 783.339 363.141C779.025 373.557 777.896 385.017 780.095 396.074C782.295 407.131 787.723 417.288 795.695 425.259C803.667 433.231 813.823 438.66 824.88 440.859C835.937 443.058 847.398 441.929 857.813 437.615C868.228 433.301 877.131 425.995 883.394 416.622C889.657 407.248 893 396.228 893 384.954C893 369.837 886.995 355.339 876.305 344.649C865.616 333.959 851.117 327.954 836 327.954ZM820.89 368.702C822.634 368.743 824.328 369.297 825.758 370.295C827.188 371.293 828.293 372.691 828.932 374.314C829.571 375.937 829.718 377.713 829.353 379.419C828.988 381.124 828.128 382.684 826.88 383.904C825.632 385.123 824.053 385.947 822.339 386.272C820.625 386.597 818.853 386.41 817.246 385.733C815.638 385.056 814.266 383.92 813.301 382.467C812.336 381.014 811.821 379.308 811.821 377.564C811.834 376.386 812.079 375.222 812.541 374.139C813.004 373.056 813.676 372.075 814.518 371.252C815.361 370.429 816.357 369.78 817.45 369.343C818.544 368.905 819.713 368.687 820.89 368.702V368.702ZM869.231 407.108H863.19V398.246H808.81V407.108H802.769V362.8H808.81V389.385H832.971V368.702H857.15C858.72 368.685 860.277 368.977 861.734 369.562C863.19 370.146 864.517 371.012 865.639 372.11C866.761 373.208 867.656 374.516 868.272 375.96C868.888 377.403 869.214 378.954 869.231 380.523V407.108Z" fill="#3F3D56"/>
<path d="M205.077 369.723H188.115C187.932 369.724 187.756 369.797 187.626 369.927C187.496 370.056 187.423 370.232 187.423 370.416V394.646C187.423 394.83 187.496 395.006 187.626 395.135C187.756 395.265 187.932 395.338 188.115 395.339H205.077C205.81 395.337 206.514 395.044 207.032 394.525C207.551 394.006 207.844 393.303 207.846 392.569V372.493C207.844 371.759 207.551 371.056 207.032 370.537C206.514 370.018 205.81 369.726 205.077 369.723Z" fill="#3F3D56"/>
<path d="M201.269 400.531C200.478 400.595 199.722 400.885 199.09 401.365C198.458 401.846 197.977 402.497 197.703 403.242C197.429 403.987 197.374 404.795 197.545 405.57C197.716 406.346 198.105 407.056 198.666 407.617C199.227 408.178 199.937 408.567 200.713 408.738C201.488 408.909 202.296 408.854 203.041 408.58C203.786 408.306 204.437 407.825 204.918 407.193C205.398 406.561 205.687 405.805 205.752 405.014C205.799 404.413 205.716 403.809 205.508 403.244C205.299 402.678 204.971 402.165 204.544 401.738C204.118 401.312 203.605 400.984 203.039 400.775C202.474 400.567 201.87 400.483 201.269 400.531V400.531Z" fill="#3F3D56"/>
<path d="M168.056 400.531C167.265 400.595 166.508 400.885 165.876 401.365C165.245 401.846 164.763 402.497 164.49 403.242C164.216 403.987 164.161 404.795 164.332 405.57C164.502 406.346 164.891 407.056 165.452 407.617C166.014 408.178 166.724 408.567 167.499 408.738C168.275 408.909 169.082 408.854 169.828 408.58C170.573 408.306 171.224 407.825 171.704 407.193C172.185 406.561 172.474 405.805 172.539 405.014C172.586 404.413 172.503 403.809 172.294 403.244C172.086 402.678 171.757 402.165 171.331 401.738C170.905 401.312 170.391 400.984 169.826 400.775C169.261 400.567 168.657 400.483 168.056 400.531V400.531Z" fill="#3F3D56"/>
<path d="M181.885 369.723H164.958C164.215 369.726 163.503 370.022 162.978 370.548C162.453 371.073 162.157 371.784 162.154 372.527V392.535C162.157 393.278 162.453 393.989 162.978 394.514C163.503 395.04 164.215 395.336 164.958 395.339H181.885C182.068 395.338 182.244 395.265 182.373 395.135C182.503 395.006 182.576 394.83 182.577 394.646V370.416C182.576 370.232 182.503 370.056 182.374 369.927C182.244 369.797 182.068 369.724 181.885 369.723V369.723Z" fill="#3F3D56"/>
<path d="M185 327.954C173.726 327.954 162.706 331.297 153.333 337.56C143.959 343.824 136.653 352.726 132.339 363.141C128.025 373.557 126.896 385.017 129.095 396.074C131.295 407.131 136.723 417.288 144.695 425.259C152.667 433.231 162.823 438.66 173.88 440.859C184.937 443.058 196.398 441.929 206.813 437.615C217.228 433.301 226.131 425.995 232.394 416.622C238.657 407.248 242 396.228 242 384.954C242 369.837 235.995 355.339 225.305 344.649C214.616 333.959 200.117 327.954 185 327.954V327.954ZM212.692 408.146C212.687 409.981 211.956 411.739 210.659 413.036C209.361 414.333 207.604 415.064 205.769 415.069H164.231C162.396 415.064 160.639 414.333 159.341 413.036C158.044 411.739 157.313 409.981 157.308 408.146V360.377C157.312 358.91 157.897 357.503 158.935 356.466C159.972 355.428 161.379 354.843 162.846 354.839H207.154C208.621 354.843 210.028 355.428 211.065 356.466C212.103 357.503 212.688 358.91 212.692 360.377V408.146Z" fill="#3F3D56"/>
<path d="M205.25 359.685H164.75C164.418 359.662 164.084 359.708 163.77 359.819C163.457 359.93 163.169 360.105 162.925 360.332C162.682 360.56 162.488 360.834 162.355 361.14C162.222 361.445 162.154 361.775 162.154 362.108C162.154 362.441 162.222 362.771 162.355 363.076C162.488 363.381 162.682 363.656 162.925 363.884C163.169 364.111 163.457 364.286 163.77 364.397C164.084 364.508 164.418 364.554 164.75 364.531H205.25C205.582 364.554 205.916 364.508 206.23 364.397C206.543 364.286 206.831 364.111 207.075 363.884C207.318 363.656 207.512 363.381 207.645 363.076C207.778 362.771 207.846 362.441 207.846 362.108C207.846 361.775 207.778 361.445 207.645 361.14C207.512 360.834 207.318 360.56 207.075 360.332C206.831 360.105 206.543 359.93 206.23 359.819C205.916 359.708 205.582 359.662 205.25 359.685V359.685Z" fill="#3F3D56"/>
<path d="M355.615 386.512C354.473 386.512 353.539 388.208 353.539 390.32C353.539 392.431 354.473 394.127 355.615 394.127C356.758 394.127 357.692 392.431 357.692 390.32C357.692 388.208 356.758 386.512 355.615 386.512Z" fill="#3F3D56"/>
<path d="M340.385 386.512C339.242 386.512 338.308 388.208 338.308 390.32C338.308 392.431 339.242 394.127 340.385 394.127C341.527 394.127 342.462 392.431 342.462 390.32C342.462 388.208 341.527 386.512 340.385 386.512Z" fill="#3F3D56"/>
<path d="M348 327.954C336.726 327.954 325.706 331.297 316.333 337.56C306.959 343.824 299.653 352.726 295.339 363.141C291.025 373.557 289.896 385.017 292.095 396.074C294.295 407.131 299.723 417.288 307.695 425.259C315.667 433.231 325.823 438.66 336.88 440.859C347.937 443.058 359.398 441.929 369.813 437.615C380.228 433.301 389.131 425.995 395.394 416.622C401.657 407.248 405 396.228 405 384.954C405 369.837 398.995 355.339 388.305 344.649C377.616 333.959 363.117 327.954 348 327.954ZM321.346 383.016L324.496 366.262C325.31 361.71 327.421 358.127 331.385 358.127H337.338L337.685 356.76C337.988 355.567 338.68 354.509 339.652 353.754C340.623 352.998 341.819 352.588 343.05 352.589H352.915C354.144 352.588 355.337 352.996 356.309 353.748C357.28 354.5 357.974 355.553 358.281 356.743L358.627 358.127H364.615C368.492 358.127 370.552 361.641 371.521 366.244V366.262L374.688 383.033C374.714 383.158 374.704 383.288 374.659 383.408C374.615 383.528 374.539 383.633 374.438 383.712C374.338 383.791 374.217 383.84 374.09 383.855C373.963 383.869 373.835 383.849 373.719 383.795L369.323 381.77C369.22 381.727 369.129 381.658 369.059 381.57C368.989 381.482 368.943 381.378 368.925 381.268L366.121 366.452C365.602 364.548 364.875 363.683 363.335 363.683H332.683C331.16 363.683 330.329 364.6 329.896 366.452L327.092 381.268C327.071 381.377 327.024 381.48 326.954 381.567C326.885 381.654 326.796 381.724 326.694 381.77L322.315 383.777C322.2 383.83 322.072 383.849 321.945 383.834C321.819 383.819 321.7 383.769 321.6 383.691C321.5 383.612 321.423 383.508 321.379 383.389C321.334 383.27 321.323 383.141 321.346 383.016V383.016ZM382.39 393.798L372.923 417.319C368.163 417.319 363.11 413.512 363.11 413.512C359.994 415.087 353.919 416.471 349.385 416.731C348.9 416.748 348.433 416.766 348 416.766C347.567 416.766 347.1 416.766 346.615 416.731C342.081 416.471 336.006 415.069 332.89 413.512C332.89 413.512 327.837 417.319 323.077 417.319L313.61 393.798C313.464 393.429 313.387 393.036 313.385 392.639C313.385 392.041 313.556 391.457 313.878 390.954C314.2 390.451 314.66 390.05 315.202 389.8L347.412 375.002C347.593 374.917 347.791 374.872 347.991 374.872C348.192 374.872 348.39 374.917 348.571 375.002L380.798 389.8C381.34 390.05 381.8 390.451 382.122 390.954C382.444 391.457 382.615 392.041 382.615 392.639C382.613 393.036 382.536 393.429 382.39 393.798V393.798Z" fill="#3F3D56"/>
<path d="M511 327.954C499.726 327.954 488.706 331.297 479.333 337.56C469.959 343.824 462.653 352.726 458.339 363.141C454.025 373.557 452.896 385.017 455.095 396.074C457.295 407.131 462.723 417.288 470.695 425.259C478.667 433.231 488.823 438.66 499.88 440.859C510.937 443.058 522.398 441.929 532.813 437.615C543.228 433.301 552.131 425.995 558.394 416.622C564.657 407.248 568 396.228 568 384.954C568 369.837 561.995 355.339 551.305 344.649C540.616 333.959 526.117 327.954 511 327.954V327.954ZM537.258 390.51C536.67 390.51 534.714 390.493 534.143 390.458L522.91 390.164C522.852 390.162 522.794 390.176 522.742 390.203C522.691 390.23 522.647 390.27 522.616 390.319L505.758 415.52C505.508 415.913 505.163 416.237 504.755 416.461C504.346 416.685 503.887 416.801 503.421 416.8H499.32C498.35 416.8 498.021 415.831 498.368 414.931L507.039 390.198C507.059 390.147 507.066 390.092 507.06 390.037C507.054 389.982 507.035 389.93 507.004 389.884C506.974 389.838 506.933 389.8 506.884 389.774C506.836 389.747 506.782 389.732 506.727 389.731L485.664 389.264C485.445 389.259 485.228 389.305 485.03 389.398C484.831 389.491 484.657 389.629 484.521 389.8L477.996 397.71C477.735 398.038 477.404 398.303 477.026 398.486C476.649 398.669 476.235 398.764 475.816 398.766H472.925C472.815 398.767 472.705 398.741 472.606 398.691C472.508 398.641 472.422 398.568 472.358 398.478C472.293 398.388 472.251 398.284 472.236 398.174C472.22 398.065 472.231 397.953 472.268 397.848L475.712 385.958C475.971 385.296 475.971 384.56 475.712 383.898L472.268 372.008C472.231 371.903 472.22 371.792 472.236 371.682C472.251 371.572 472.293 371.468 472.358 371.378C472.422 371.288 472.508 371.215 472.606 371.165C472.705 371.115 472.815 371.09 472.925 371.091H475.833C476.253 371.088 476.668 371.182 477.046 371.365C477.424 371.548 477.755 371.815 478.014 372.146L484.418 379.935C484.552 380.108 484.726 380.247 484.925 380.34C485.123 380.433 485.341 380.478 485.56 380.471L506.745 380.16C506.8 380.16 506.855 380.146 506.903 380.119C506.952 380.093 506.994 380.055 507.025 380.009C507.055 379.963 507.074 379.91 507.08 379.855C507.085 379.8 507.077 379.744 507.056 379.693L498.385 354.977C498.039 354.077 498.368 353.108 499.337 353.108H503.439C503.904 353.109 504.362 353.227 504.77 353.45C505.179 353.674 505.524 353.997 505.775 354.389L522.616 379.606C522.646 379.656 522.689 379.698 522.741 379.725C522.793 379.753 522.851 379.765 522.91 379.762L534.143 379.468C534.696 379.433 536.67 379.416 537.258 379.416C544.943 379.416 549.771 381.908 549.771 384.971C549.771 388.035 544.925 390.51 537.258 390.51Z" fill="#3F3D56"/>
<path d="M193.672 577.09C191.299 577.09 188.979 576.386 187.006 575.067C185.032 573.749 183.494 571.875 182.586 569.682C181.678 567.489 181.44 565.076 181.903 562.749C182.366 560.421 183.509 558.283 185.187 556.605C186.865 554.926 189.004 553.783 191.331 553.32C193.659 552.857 196.072 553.095 198.265 554.003C200.457 554.912 202.331 556.45 203.65 558.423C204.969 560.396 205.672 562.716 205.672 565.09C205.669 568.271 204.403 571.321 202.154 573.571C199.904 575.821 196.854 577.086 193.672 577.09ZM193.672 555.09C191.695 555.09 189.761 555.676 188.117 556.775C186.472 557.874 185.19 559.436 184.434 561.263C183.677 563.09 183.479 565.101 183.865 567.041C184.25 568.981 185.203 570.762 186.601 572.161C188 573.559 189.782 574.512 191.721 574.898C193.661 575.284 195.672 575.085 197.499 574.329C199.326 573.572 200.888 572.29 201.987 570.646C203.086 569.001 203.672 567.068 203.672 565.09C203.669 562.439 202.615 559.897 200.74 558.022C198.865 556.147 196.324 555.093 193.672 555.09V555.09Z" fill="#F0F0F0"/>
<path d="M446.672 308.09C444.299 308.09 441.979 307.386 440.006 306.067C438.032 304.749 436.494 302.875 435.586 300.682C434.678 298.489 434.44 296.077 434.903 293.749C435.366 291.421 436.509 289.283 438.187 287.605C439.865 285.926 442.004 284.783 444.331 284.32C446.659 283.857 449.072 284.095 451.265 285.003C453.457 285.912 455.331 287.45 456.65 289.423C457.969 291.396 458.672 293.716 458.672 296.09C458.669 299.271 457.403 302.321 455.154 304.571C452.904 306.821 449.854 308.086 446.672 308.09V308.09ZM446.672 286.09C444.695 286.09 442.761 286.676 441.117 287.775C439.472 288.874 438.19 290.436 437.434 292.263C436.677 294.09 436.479 296.101 436.865 298.041C437.25 299.981 438.203 301.762 439.601 303.161C441 304.559 442.782 305.512 444.721 305.898C446.661 306.284 448.672 306.086 450.499 305.329C452.326 304.572 453.888 303.29 454.987 301.646C456.086 300.001 456.672 298.068 456.672 296.09C456.669 293.439 455.615 290.897 453.74 289.022C451.865 287.147 449.324 286.093 446.672 286.09Z" fill="#F0F0F0"/>
<path d="M670.144 637.46L656.679 623.024L671.115 609.558L684.58 623.995L670.144 637.46ZM658.825 623.098L670.219 635.314L682.434 623.92L671.04 611.705L658.825 623.098Z" fill="#F0F0F0"/>
</svg>
