<svg xmlns="http://www.w3.org/2000/svg" width="1144" height="698" fill="none" viewBox="0 0 1144 698"><g clip-path="url(#clip0)"><path fill="#6C63FF" d="M1144 415.31C1144.06 448.406 1135.03 480.882 1117.88 509.19C1117.88 543.81 1101.74 575.19 1075.56 598.06C1069.01 603.776 1061.95 608.89 1054.48 613.34C1054.18 613.53 1053.87 613.71 1053.56 613.89C1053 614.22 1052.44 614.55 1051.87 614.89L1051.34 615.2C1026.55 629.007 998.615 636.172 970.24 636H217.17C211.17 636 205.224 635.76 199.33 635.28C178.387 633.631 157.807 628.865 138.27 621.14C134.457 619.633 130.717 618.013 127.05 616.28C125.304 615.46 123.574 614.617 121.86 613.75C120.79 613.21 119.72 612.65 118.66 612.09C106.34 605.598 94.7824 597.753 84.2004 588.7C50.2004 559.47 29.1204 519.09 29.1204 474.49C10.0478 445.121 -0.069875 410.838 0.000363231 375.82C0.000363231 276.68 79.2404 196.31 177 196.31C180 196.31 183 196.4 186 196.56C186.43 196.56 186.85 196.56 187.28 196.62C203.76 168.53 225.79 142.72 252.28 120C324.52 58.1 430.1 19.08 547.71 19.08C646.53 19.08 736.86 46.63 806.05 92.15C832.269 77.3289 861.883 69.5594 892 69.6C989.74 69.6 1069 149.97 1069 249.11C1068.99 255.383 1068.65 261.651 1068 267.89C1091.56 284.568 1110.76 306.668 1123.99 332.325C1137.22 357.982 1144.08 386.444 1144 415.31V415.31Z" opacity=".1"/><g opacity=".2"><path fill="#3F3D56" d="M138.37 619.79C138.37 620.25 138.32 620.7 138.27 621.14C134.457 619.633 130.717 618.013 127.05 616.28C125.091 616.022 123.27 615.134 121.86 613.75C120.79 613.21 119.72 612.65 118.66 612.09C118.9 611.587 119.171 611.1 119.47 610.63C121.53 607.37 124.66 605.33 128.11 605.44C131.56 605.55 134.55 607.78 136.4 611.15C137.815 613.803 138.495 616.786 138.37 619.79V619.79Z" opacity=".2"/><path fill="#3F3D56" d="M138.91 602.67C138.842 605.67 137.976 608.597 136.4 611.15C134.34 614.4 131.21 616.44 127.76 616.33L127.05 616.28C125.091 616.022 123.27 615.134 121.86 613.75C120.904 612.842 120.098 611.789 119.47 610.63C118.09 607.968 117.415 604.997 117.51 602C117.604 599.003 118.465 596.08 120.01 593.51C122.07 590.25 125.2 588.21 128.65 588.32C132.1 588.43 135.09 590.66 136.94 594.03C138.355 596.683 139.035 599.666 138.91 602.67Z" opacity=".2"/><path fill="#3F3D56" d="M139.453 585.58C139.697 577.847 135.107 571.426 129.201 571.239C123.294 571.053 118.308 577.171 118.064 584.904C117.819 592.638 122.409 599.059 128.316 599.245C134.222 599.432 139.208 593.314 139.453 585.58Z" opacity=".2"/><path fill="#3F3D56" d="M139.989 568.46C140.233 560.726 135.643 554.305 129.737 554.119C123.83 553.932 118.844 560.05 118.6 567.784C118.355 575.518 122.945 581.938 128.852 582.125C134.758 582.311 139.745 576.193 139.989 568.46Z" opacity=".2"/><path fill="#3F3D56" d="M140.614 550.21C140.846 542.473 136.244 536.056 130.334 535.879C124.425 535.702 119.446 541.831 119.214 549.568C118.982 557.306 123.584 563.722 129.494 563.899C135.403 564.076 140.382 557.948 140.614 550.21Z" opacity=".2"/><path fill="#6C63FF" d="M93.4698 432.55C92.0615 430.643 90.7916 428.638 89.6698 426.55L117.93 422.82L87.5098 422.09C84.7951 415.651 83.4225 408.726 83.4758 401.738C83.5291 394.75 85.0072 387.847 87.8198 381.45L127.94 403.9L91.1898 375.05C94.8971 369.054 99.8009 363.887 105.595 359.871C111.389 355.855 117.949 353.077 124.865 351.71C131.781 350.343 138.904 350.417 145.79 351.927C152.676 353.438 159.177 356.351 164.887 360.486C170.596 364.622 175.392 369.89 178.973 375.962C182.555 382.034 184.847 388.779 185.705 395.776C186.563 402.773 185.969 409.872 183.96 416.63C181.951 423.387 178.571 429.658 174.03 435.05C176.218 438.017 178.079 441.213 179.58 444.58L142.49 462.39L181.82 450.56C184.297 458.733 184.696 467.394 182.981 475.759C181.266 484.125 177.492 491.931 172 498.47C177.71 506.217 181.125 515.415 181.853 525.012C182.582 534.609 180.595 544.217 176.121 552.737C171.646 561.258 164.863 568.347 156.549 573.195C148.235 578.043 138.724 580.452 129.104 580.149C119.485 579.846 110.145 576.842 102.152 571.48C94.16 566.118 87.8377 558.616 83.9086 549.83C79.9794 541.044 78.602 531.33 79.9338 521.798C81.2656 512.267 85.2529 503.302 91.4398 495.93C84.6178 486.671 81.1061 475.388 81.4689 463.894C81.8316 452.399 86.0477 441.36 93.4398 432.55H93.4698Z" opacity=".2"/><path fill="#000" d="M184 467.13C183.645 478.63 179.417 489.674 172 498.47C177.71 506.217 181.125 515.415 181.853 525.012C182.582 534.609 180.595 544.217 176.121 552.737C171.646 561.258 164.863 568.348 156.549 573.195C148.235 578.043 138.724 580.453 129.104 580.149C119.485 579.846 110.145 576.842 102.152 571.48C94.16 566.118 87.8377 558.616 83.9086 549.83C79.9794 541.044 78.602 531.33 79.9338 521.799C81.2656 512.267 85.2529 503.302 91.4398 495.93C84.8698 487 184.18 461.37 184 467.13Z" opacity=".1"/></g><path fill="#fff" d="M958 138.41V617.59C958 622.473 956.06 627.155 952.608 630.608C949.155 634.06 944.473 636 939.59 636H204.41C202.691 636.002 200.981 635.76 199.33 635.28C195.487 634.182 192.106 631.861 189.701 628.669C187.296 625.476 185.996 621.587 186 617.59V403.75C186 402.66 186 401.58 186 400.5V196.56C186.43 196.56 186.85 196.56 187.28 196.62C203.76 168.53 225.79 142.72 252.28 120H939.59C944.473 120 949.155 121.94 952.608 125.392C956.06 128.845 958 133.527 958 138.41Z"/><path fill="#3F3D56" d="M832.02 182.23H730.15C720.22 182.23 712.17 190.28 712.17 200.21C712.17 210.14 720.22 218.19 730.15 218.19H832.02C841.95 218.19 850 210.14 850 200.21C850 190.28 841.95 182.23 832.02 182.23Z"/><path fill="#000" d="M829.04 188.24H733.12C726.509 188.24 721.15 193.597 721.15 200.205C721.15 206.813 726.509 212.17 733.12 212.17H829.04C835.651 212.17 841.01 206.813 841.01 200.205C841.01 193.597 835.651 188.24 829.04 188.24Z" opacity=".1"/><path fill="#6C63FF" d="M827.36 189.55H805.38C799.498 189.55 794.73 194.318 794.73 200.2V200.21C794.73 206.092 799.498 210.86 805.38 210.86H827.36C833.242 210.86 838.01 206.092 838.01 200.21V200.2C838.01 194.318 833.242 189.55 827.36 189.55Z"/><path fill="#fff" d="M816.04 206.87C819.718 206.87 822.7 203.888 822.7 200.21C822.7 196.532 819.718 193.55 816.04 193.55C812.362 193.55 809.38 196.532 809.38 200.21C809.38 203.888 812.362 206.87 816.04 206.87Z"/><path fill="#3F3D56" d="M832.02 419.28H730.15C720.22 419.28 712.17 427.33 712.17 437.26C712.17 447.19 720.22 455.24 730.15 455.24H832.02C841.95 455.24 850 447.19 850 437.26C850 427.33 841.95 419.28 832.02 419.28Z"/><path fill="#000" d="M829.04 425.29H733.12C726.509 425.29 721.15 430.647 721.15 437.255C721.15 443.863 726.509 449.22 733.12 449.22H829.04C835.651 449.22 841.01 443.863 841.01 437.255C841.01 430.647 835.651 425.29 829.04 425.29Z" opacity=".1"/><path fill="#6C63FF" d="M827.36 426.6H805.38C799.498 426.6 794.73 431.368 794.73 437.25V437.26C794.73 443.142 799.498 447.91 805.38 447.91H827.36C833.242 447.91 838.01 443.142 838.01 437.26V437.25C838.01 431.368 833.242 426.6 827.36 426.6Z"/><path fill="#fff" d="M816.04 443.92C819.718 443.92 822.7 440.938 822.7 437.26C822.7 433.582 819.718 430.6 816.04 430.6C812.362 430.6 809.38 433.582 809.38 437.26C809.38 440.938 812.362 443.92 816.04 443.92Z"/><path fill="#3F3D56" d="M832.02 537.8H730.15C720.22 537.8 712.17 545.85 712.17 555.78C712.17 565.71 720.22 573.76 730.15 573.76H832.02C841.95 573.76 850 565.71 850 555.78C850 545.85 841.95 537.8 832.02 537.8Z"/><path fill="#000" d="M829.04 543.82H733.12C726.509 543.82 721.15 549.177 721.15 555.785C721.15 562.393 726.509 567.75 733.12 567.75H829.04C835.651 567.75 841.01 562.393 841.01 555.785C841.01 549.177 835.651 543.82 829.04 543.82Z" opacity=".1"/><path fill="#6C63FF" d="M827.36 545.13H805.38C799.498 545.13 794.73 549.898 794.73 555.78V555.79C794.73 561.672 799.498 566.44 805.38 566.44H827.36C833.242 566.44 838.01 561.672 838.01 555.79V555.78C838.01 549.898 833.242 545.13 827.36 545.13Z"/><path fill="#fff" d="M816.04 562.44C819.718 562.44 822.7 559.458 822.7 555.78C822.7 552.102 819.718 549.12 816.04 549.12C812.362 549.12 809.38 552.102 809.38 555.78C809.38 559.458 812.362 562.44 816.04 562.44Z"/><path fill="#6C63FF" d="M363.92 159.59H304.65C298.768 159.59 294 164.358 294 170.24V170.25C294 176.132 298.768 180.9 304.65 180.9H363.92C369.802 180.9 374.57 176.132 374.57 170.25V170.24C374.57 164.358 369.802 159.59 363.92 159.59Z"/><path fill="#6C63FF" d="M507.08 189.55H304.65C298.768 189.55 294 194.318 294 200.2V200.21C294 206.092 298.768 210.86 304.65 210.86H507.08C512.962 210.86 517.73 206.092 517.73 200.21V200.2C517.73 194.318 512.962 189.55 507.08 189.55Z"/><path fill="#6C63FF" d="M507.08 219.52H304.65C298.768 219.52 294 224.288 294 230.17V230.18C294 236.062 298.768 240.83 304.65 240.83H507.08C512.962 240.83 517.73 236.062 517.73 230.18V230.17C517.73 224.288 512.962 219.52 507.08 219.52Z"/><g opacity=".5"><path fill="#6C63FF" d="M363.92 278.11H304.65C298.768 278.11 294 282.878 294 288.76V288.77C294 294.652 298.768 299.42 304.65 299.42H363.92C369.802 299.42 374.57 294.652 374.57 288.77V288.76C374.57 282.878 369.802 278.11 363.92 278.11Z" opacity=".5"/><path fill="#6C63FF" d="M450.35 308.08H304.65C298.768 308.08 294 312.848 294 318.73V318.74C294 324.622 298.768 329.39 304.65 329.39H450.35C456.232 329.39 461 324.622 461 318.74V318.73C461 312.848 456.232 308.08 450.35 308.08Z" opacity=".5"/><path fill="#6C63FF" d="M507.08 338.04H304.65C298.768 338.04 294 342.808 294 348.69V348.7C294 354.582 298.768 359.35 304.65 359.35H507.08C512.962 359.35 517.73 354.582 517.73 348.7V348.69C517.73 342.808 512.962 338.04 507.08 338.04Z" opacity=".5"/></g><path fill="#6C63FF" d="M363.92 396.64H304.65C298.768 396.64 294 401.408 294 407.29V407.3C294 413.182 298.768 417.95 304.65 417.95H363.92C369.802 417.95 374.57 413.182 374.57 407.3V407.29C374.57 401.408 369.802 396.64 363.92 396.64Z"/><path fill="#6C63FF" d="M507.08 426.6H304.65C298.768 426.6 294 431.368 294 437.25V437.26C294 443.142 298.768 447.91 304.65 447.91H507.08C512.962 447.91 517.73 443.142 517.73 437.26V437.25C517.73 431.368 512.962 426.6 507.08 426.6Z"/><path fill="#6C63FF" d="M422.35 456.57H304.65C298.768 456.57 294 461.338 294 467.22V467.23C294 473.112 298.768 477.88 304.65 477.88H422.35C428.232 477.88 433 473.112 433 467.23V467.22C433 461.338 428.232 456.57 422.35 456.57Z"/><path fill="#6C63FF" d="M363.92 515.16H304.65C298.768 515.16 294 519.928 294 525.81V525.82C294 531.702 298.768 536.47 304.65 536.47H363.92C369.802 536.47 374.57 531.702 374.57 525.82V525.81C374.57 519.928 369.802 515.16 363.92 515.16Z"/><path fill="#6C63FF" d="M507.08 545.13H304.65C298.768 545.13 294 549.898 294 555.78V555.79C294 561.672 298.768 566.44 304.65 566.44H507.08C512.962 566.44 517.73 561.672 517.73 555.79V555.78C517.73 549.898 512.962 545.13 507.08 545.13Z"/><path fill="#6C63FF" d="M463.35 575.09H304.65C298.768 575.09 294 579.858 294 585.74V585.75C294 591.632 298.768 596.4 304.65 596.4H463.35C469.232 596.4 474 591.632 474 585.75V585.74C474 579.858 469.232 575.09 463.35 575.09Z"/><path stroke="#3F3D56" stroke-linecap="round" stroke-miterlimit="10" d="M260 259.99H912" opacity=".7"/><path stroke="#3F3D56" stroke-linecap="round" stroke-miterlimit="10" d="M260 380.49H912" opacity=".7"/><path stroke="#3F3D56" stroke-linecap="round" stroke-miterlimit="10" d="M260 500.99H912" opacity=".7"/><path stroke="#3F3D56" stroke-linecap="round" stroke-miterlimit="10" d="M260 624.49H912" opacity=".7"/><path fill="#6C63FF" d="M70.5196 162.81C82.4656 162.81 92.1497 153.126 92.1497 141.18C92.1497 129.234 82.4656 119.55 70.5196 119.55C58.5737 119.55 48.8896 129.234 48.8896 141.18C48.8896 153.126 58.5737 162.81 70.5196 162.81Z" opacity=".1"/><path fill="#6C63FF" d="M160.67 43.26C172.616 43.26 182.3 33.5759 182.3 21.63C182.3 9.68408 172.616 0 160.67 0C148.724 0 139.04 9.68408 139.04 21.63C139.04 33.5759 148.724 43.26 160.67 43.26Z" opacity=".1"/><path fill="#6C63FF" d="M153.34 140.01C173.36 140.01 189.59 123.78 189.59 103.76C189.59 83.7397 173.36 67.51 153.34 67.51C133.32 67.51 117.09 83.7397 117.09 103.76C117.09 123.78 133.32 140.01 153.34 140.01Z" opacity=".1"/><path fill="#3F3D56" d="M832.02 300.75H730.15C720.22 300.75 712.17 308.8 712.17 318.73C712.17 328.66 720.22 336.71 730.15 336.71H832.02C841.95 336.71 850 328.66 850 318.73C850 308.8 841.95 300.75 832.02 300.75Z"/><path fill="#000" d="M829.04 306.77H733.12C726.509 306.77 721.15 312.127 721.15 318.735C721.15 325.343 726.509 330.7 733.12 330.7H829.04C835.651 330.7 841.01 325.343 841.01 318.735C841.01 312.127 835.651 306.77 829.04 306.77Z" opacity=".1"/><path fill="#6C63FF" d="M734.8 329.39H756.78C762.662 329.39 767.43 324.622 767.43 318.74V318.73C767.43 312.848 762.662 308.08 756.78 308.08H734.8C728.918 308.08 724.15 312.848 724.15 318.73V318.74C724.15 324.622 728.918 329.39 734.8 329.39Z"/><path fill="#fff" d="M746.12 325.39C749.798 325.39 752.78 322.408 752.78 318.73C752.78 315.052 749.798 312.07 746.12 312.07C742.442 312.07 739.46 315.052 739.46 318.73C739.46 322.408 742.442 325.39 746.12 325.39Z"/></g><defs><clipPath id="clip0"><rect width="1144" height="697.99" fill="#fff"/></clipPath></defs></svg>