<svg xmlns="http://www.w3.org/2000/svg" width="1087" height="612" fill="none" viewBox="0 0 1087 612"><g clip-path="url(#clip0)"><path fill="#6C63FF" d="M604.67 83.43C542.01 83.07 481.95 67.06 424.53 49.33C367.11 31.6 310.2 11.85 248.83 3.17001C209.36 -2.38999 164.38 -2.22001 133.15 16.75C103.1 35.01 93.9799 65.49 89.3699 93.68C85.8899 114.89 84.0899 137.17 95.4899 156.68C103.4 170.22 117.13 181.43 126.76 194.35C160.25 239.3 138.76 296.25 104.76 341.76C88.7599 363.11 70.1999 383.56 58.0399 406.16C45.8799 428.76 40.6299 454.47 52.2899 476.94C63.8499 499.22 90.5099 515.52 119.23 526.75C177.57 549.54 245.79 554.81 312.23 557.12C459.34 562.24 606.93 554.9 754.12 547.57C808.6 544.85 863.31 542.11 916.75 533.57C946.43 528.81 977.02 521.64 998.26 505.63C1025.26 485.29 1031.26 451.83 1012.26 427.63C980.42 387.02 894.88 378.81 872.26 334.95C859.8 310.8 871.32 283.29 888.02 260.21C923.84 210.7 984.81 166.54 986.73 110.9C988.05 72.68 957.31 35.18 910.78 18.24C861.94 0.419998 795.04 4.42 760.12 36.62C724.2 69.77 660.04 83.75 604.67 83.43Z" opacity=".1"/><path fill="#fff" d="M218.75 279.55L537.33 166.72V556.51L218.75 549.87V279.55Z"/><path fill="#6C63FF" d="M218.75 279.55L537.33 166.72V556.51L218.75 549.87V279.55Z" opacity=".2"/><path fill="#fff" d="M0 343.92L181.75 279.55V549.87H0V343.92Z"/><path fill="#6C63FF" d="M0 343.92L181.75 279.55V549.87H0V343.92Z" opacity=".2"/><path fill="#fff" d="M537.33 166.72L855.9 279.55V549.87L537.33 556.51V166.72Z"/><path fill="#6C63FF" d="M537.33 166.72L855.9 279.55V549.87L537.33 556.51V166.72Z" opacity=".5"/><path fill="#fff" d="M1077.94 344.73L893.9 279.55V549.87H1077.94V344.73Z"/><path fill="#6C63FF" d="M1077.94 344.73L893.9 279.55V549.87H1077.94V344.73Z" opacity=".5"/><path fill="#fff" d="M105.91 390.85C104.62 390.85 103.57 392.61 103.57 394.78V443.7C103.638 448.527 102.5 453.294 100.26 457.57C98.1699 461.24 94.9699 463.57 91.9099 463.57H89.9099C86.9099 463.57 83.9699 461.33 81.6699 457.38C79.2719 453.116 78.0211 448.302 78.0399 443.41V380.29C77.9773 376.801 78.8768 373.362 80.6399 370.35C82.3099 367.71 84.4999 366.25 86.7999 366.25C89.0999 366.25 91.2099 367.71 92.7999 370.33C94.4862 373.389 95.3348 376.838 95.2599 380.33V439.27C95.2599 443.57 93.2599 447.37 90.8999 447.37C88.8999 447.37 86.6599 444.13 86.6599 439.27V405.61C86.6599 403.45 85.6099 401.68 84.3199 401.68C83.0299 401.68 81.9699 403.45 81.9699 405.61V439.23C81.9699 448.17 85.8099 454.91 90.8999 454.91C93.3799 454.91 95.6699 453.37 97.3199 450.56C99.1652 447.076 100.072 443.171 99.9499 439.23V380.29C100.053 374.851 98.7031 369.483 96.0399 364.74C93.5599 360.59 90.2499 358.32 86.7199 358.32C83.1899 358.32 79.8799 360.59 77.3699 364.74C74.7 369.491 73.3532 374.871 73.4699 380.32V443.43C73.4699 450.66 75.3099 458 78.3699 463.06C81.4299 468.12 85.5699 471.06 89.8099 471.06H91.8599C96.0099 471.06 100.17 468.12 103.27 462.98C104.875 460.266 106.084 457.336 106.86 454.28C107.756 450.818 108.206 447.256 108.2 443.68V394.68C108.2 392.51 107.2 390.75 105.87 390.75L105.91 390.85Z"/><path fill="#fff" d="M417.4 326.45L407.85 339.14C407.77 339.258 407.658 339.351 407.526 339.406C407.395 339.461 407.25 339.476 407.11 339.45L397.24 337.09C397.053 337.019 396.89 336.897 396.77 336.738C396.65 336.579 396.577 336.389 396.56 336.19L394.8 323.12C394.747 322.77 394.829 322.412 395.03 322.12L404.56 309.45C404.917 308.941 405.089 308.326 405.049 307.706C405.009 307.086 404.759 306.499 404.34 306.04C402.535 304.238 400.127 303.17 397.58 303.04C397.44 303.024 397.299 303.024 397.16 303.04C394.5 303.24 388.8 305.21 384.4 311.4C380.13 317.4 375.66 328.46 379.62 340.82C380.09 342.31 380.62 344.28 379.04 346.37C377.46 348.46 336.59 399.37 336.59 399.37C332.76 403.74 333.04 411.82 336.59 416.52C337.345 417.593 338.338 418.477 339.492 419.101C340.646 419.726 341.929 420.075 343.24 420.12C344.517 420.097 345.766 419.745 346.868 419.098C347.97 418.452 348.886 417.533 349.53 416.43C349.53 416.43 387.67 362.63 389.53 360.18C389.78 359.77 390.125 359.426 390.536 359.178C390.946 358.929 391.411 358.782 391.89 358.75C392.55 358.784 393.185 359.018 393.71 359.42C395.738 360.806 398.143 361.535 400.6 361.51C406.3 361.51 412.29 358.01 415.95 353.17C419.724 348.304 421.918 342.4 422.24 336.25C422.366 332.894 421.582 329.566 419.97 326.62C419.863 326.379 419.694 326.17 419.479 326.017C419.265 325.864 419.013 325.771 418.75 325.748C418.487 325.726 418.223 325.774 417.986 325.889C417.748 326.004 417.546 326.18 417.4 326.4V326.45ZM345.4 410.4C345.17 410.751 344.856 411.039 344.487 411.238C344.117 411.437 343.704 411.542 343.285 411.542C342.865 411.542 342.452 411.437 342.083 411.238C341.714 411.039 341.4 410.751 341.17 410.4C340.611 409.573 340.312 408.598 340.312 407.6C340.312 406.602 340.611 405.627 341.17 404.8C341.4 404.449 341.714 404.161 342.083 403.962C342.452 403.763 342.865 403.658 343.285 403.658C343.704 403.658 344.117 403.763 344.487 403.962C344.856 404.161 345.17 404.449 345.4 404.8C345.96 405.626 346.261 406.6 346.262 407.598C346.264 408.596 345.967 409.572 345.41 410.4H345.4Z"/><path fill="#fff" d="M755.51 350.98C752.87 320.46 732.18 296.68 707.01 296.68C690.35 296.68 675.68 307.07 666.87 322.94C664.166 321.538 661.166 320.801 658.12 320.79C645.4 320.79 635.12 334.79 634.89 350.57C621.89 355.73 613.33 371.57 613.33 388.19C613.33 408.56 626.57 426.54 642.89 426.54H750.33C766.66 426.54 779.9 408.54 779.9 388.19C779.9 370.05 769.36 354.06 755.51 350.98V350.98ZM731.24 343.98L687.75 398.48C687.19 399.17 685.75 400.71 683.97 400.71C683.208 400.621 682.474 400.369 681.818 399.97C681.162 399.572 680.6 399.036 680.17 398.4L661.92 375.65C661.668 375.318 661.531 374.912 661.531 374.495C661.531 374.078 661.668 373.672 661.92 373.34L667.71 366.12C667.814 365.974 667.95 365.854 668.108 365.769C668.266 365.684 668.441 365.637 668.62 365.63C668.799 365.636 668.975 365.683 669.133 365.768C669.291 365.853 669.427 365.974 669.53 366.12L683.98 384.12L723.66 334.25C723.766 334.106 723.902 333.987 724.06 333.902C724.217 333.817 724.392 333.769 724.57 333.76C724.75 333.761 724.928 333.806 725.086 333.891C725.245 333.977 725.38 334.1 725.48 334.25L731.17 341.6C731.449 341.925 731.608 342.335 731.621 342.763C731.633 343.19 731.499 343.609 731.24 343.95V343.98Z"/><path fill="#fff" d="M1018.88 399.31C1024.34 399.31 1028.77 393.405 1028.77 386.12C1028.77 378.835 1024.34 372.93 1018.88 372.93C1013.42 372.93 1008.99 378.835 1008.99 386.12C1008.99 393.405 1013.42 399.31 1018.88 399.31Z"/><path fill="#fff" d="M1018.88 404.4C1017.79 404.395 1016.71 404.219 1015.67 403.88L1005.91 417.15C1005.83 417.262 1005.78 417.397 1005.78 417.535C1005.78 417.674 1005.83 417.808 1005.91 417.92L1021.42 439.92C1021.93 440.664 1022.21 441.546 1022.21 442.45C1022.21 443.354 1021.93 444.236 1021.42 444.98C1021.2 445.281 1020.92 445.527 1020.59 445.7C1020.26 445.874 1019.89 445.969 1019.52 445.98C1019.15 445.97 1018.79 445.875 1018.46 445.701C1018.13 445.528 1017.85 445.281 1017.63 444.98L1002.18 422.98C1002.15 422.931 1002.1 422.89 1002.05 422.862C1002 422.834 1001.94 422.819 1001.88 422.819C1001.82 422.819 1001.76 422.834 1001.71 422.862C1001.66 422.89 1001.61 422.931 1001.58 422.98L997.81 428.1C994.66 432.36 990.48 431.72 985.98 431.75C981.48 431.78 977.11 429.22 973.91 424.9L970.29 419.98C970.257 419.931 970.212 419.89 970.16 419.862C970.108 419.834 970.049 419.819 969.99 419.819C969.93 419.819 969.872 419.834 969.82 419.862C969.767 419.89 969.723 419.931 969.69 419.98L954.24 441.98C954.02 442.281 953.735 442.527 953.406 442.7C953.076 442.874 952.712 442.969 952.34 442.98C951.969 442.97 951.606 442.875 951.278 442.701C950.95 442.528 950.667 442.281 950.45 441.98C949.937 441.236 949.663 440.354 949.663 439.45C949.663 438.546 949.937 437.664 950.45 436.92L965.96 414.92C966.028 414.803 966.065 414.67 966.065 414.535C966.065 414.4 966.028 414.267 965.96 414.15L943.77 384.03C943.5 383.67 943.07 383.92 943.07 384.41V444.69C943.07 449.53 946.07 453.49 949.66 453.49L1022.18 456.49C1025.81 456.49 1028.77 452.49 1028.77 447.69V398.76C1026.28 402.23 1022.78 404.4 1018.88 404.4Z"/><path fill="#fff" d="M1005.18 386.12C1005.17 383.105 1005.74 380.116 1006.87 377.32L949.64 374.32C948.863 374.339 948.098 374.521 947.396 374.853C946.693 375.186 946.068 375.661 945.56 376.25L977.89 420.15C978.772 421.491 979.964 422.6 981.365 423.383C982.767 424.167 984.336 424.601 985.94 424.65C988.94 424.65 991.86 426.06 994 423.15L1010.58 400.63C1007.29 397.28 1005.18 392.03 1005.18 386.12V386.12Z"/><path fill="#000" d="M52.3999 508.5C52.678 508.536 52.9483 508.617 53.1999 508.74C53.3999 508.84 53.5699 509 53.7699 509.11C53.998 509.241 54.2567 509.31 54.5199 509.31C54.2268 509.325 53.9331 509.325 53.6399 509.31C53.4571 509.323 53.2735 509.299 53.0999 509.24C52.9353 509.163 52.7808 509.065 52.6399 508.95C52.4605 508.817 52.2658 508.706 52.0599 508.62C51.8999 508.56 51.7299 508.54 51.6699 508.38C51.9161 508.4 52.1603 508.44 52.3999 508.5V508.5Z" opacity=".1"/><path fill="#000" d="M54.8802 510.47C55.1602 510.47 55.4302 510.41 55.7102 510.39C56.1145 510.375 56.5193 510.395 56.9202 510.45C56.3316 510.751 55.6665 510.869 55.0102 510.79C54.8235 510.74 54.6269 510.74 54.4402 510.79C54.2402 510.87 53.6402 511.55 53.5902 510.95C53.5402 510.35 54.5402 510.48 54.8802 510.47Z" opacity=".1"/><path fill="#000" d="M51.5099 441.05L50.4399 440.27C50.5551 440.308 50.6657 440.358 50.7699 440.42C50.995 440.542 51.1979 440.701 51.3699 440.89L51.7099 441.2L51.5099 441.05Z" opacity=".1"/></g><defs><clipPath id="clip0"><rect width="1086.08" height="611.71" fill="#fff"/></clipPath></defs></svg>